# xmcd
#
# Track frame offsets:
#	150
#	15502
#	46900
#	140543
#	154654
#
# Disc length: 2073 seconds
#
# Revision: 0
# Processed by: cddbd v1.5.2PL0 Copyright (c) Steve Scherf et al.
# Submitted via: audiograbber 1.83.01
#
DISCID=34081705
DTITLE=ZZZ - DZB Weihnachten 2013
DYEAR=1900
DGENRE=Weihnachten
TTITLE0=Sprecherin - begrüßun g durch die DZB
TTITLE1=Hans Christian Andersen - Das kleine Mädchen mit den Schwefelhölzchen
TTITLE2=Marcel Pagnol - Merlusse
TTITLE3=Wolfgang Gerber - Truthahn mit Whisky
TTITLE4=Sprecherin der DZB - Abschluß
EXTD=
EXTT0=
EXTT1=
EXTT2=
EXTT3=
EXTT4=
PLAYORDER=
